<?xml version="1.0" encoding="utf-8"?><svg xmlns="http://www.w3.org/2000/svg" xmlns:xlink="http://www.w3.org/1999/xlink"><symbol viewBox="0 0 279 275" id="behance" xmlns="http://www.w3.org/2000/svg"><path d="M143 263H52.1c-11.8 0-20.5-5.5-26.1-15.9-2-3.7-2.9-7.8-3-12V52c0-8.3 2.9-15.4 8.9-21.1 5.4-5.1 11.9-7.8 19.3-7.8 8.8-.1 17.5 0 26.3 0h156.6c8.3 0 15.4 3 21 9 5.3 5.6 7.8 12.2 7.8 19.9v182.2c0 6.5-1.8 12.4-5.7 17.5-5.9 7.7-13.7 11.4-23.4 11.4-30.2-.1-60.5-.1-90.8-.1zM68.8 103.1v80h.8c13 0 26.1.1 39.1 0 5.8 0 11.4-1.1 16.6-3.7 4.8-2.4 8.6-5.8 10.5-10.9 1.6-4.2 1.8-8.5 1.1-12.8-1-5.9-3.8-10.6-9.1-13.7-1.5-.8-3-1.5-4.6-2.2.3-.1.6-.3.8-.5 2.7-1.4 5.1-3.1 6.9-5.7 2.4-3.4 3.1-7.2 2.9-11.3-.3-7.7-3.9-13.3-11-16.5-4.6-2.1-9.5-2.8-14.5-2.8H69.4c-.1 0-.3 0-.6.1zm148.5 51.3c0-4.4.3-8.6-.9-12.7-3.1-11.1-10.2-18.2-21.6-20.7-5.1-1.2-10.3-1-15.5-.1-4.8.8-9.3 2.5-13.2 5.5-4.8 3.7-7.9 8.5-9.8 14.2-1.8 5.4-2.5 11-1.4 16.6.5 2.9 1.6 5.7 2.9 8.4 1.8 3.8 3.9 7.3 7.3 10 2.6 2 5.3 4 8.5 5.2 6.2 2.3 12.5 2.9 19 1.8 10.3-1.7 18.1-6.9 22.6-16.6l1.2-2.7h-14.5c-.3 0-.6.3-.8.6-.9 1.1-1.6 2.3-2.7 3.2-2.5 2.2-5.5 3.3-8.8 3.5-3.6.3-7.1-.2-10.3-2.2-4.1-2.5-6-6.4-6.9-10.9-.2-1-.2-2-.3-3.1h45.2zm-11.4-51.3H166v11.3h39.9v-11.3z"/><path d="M85.9 147.1h.9c5.9 0 11.9-.1 17.8 0 2.1 0 4.3.3 6.3.9 5 1.5 7.6 5.5 7.4 10.7-.1 4.4-2.4 7.5-6.7 9.1-2.1.8-4.3 1.2-6.5 1.2H85.9v-21.9zm0-11.5V117c.2 0 .4-.1.6-.1 5.8 0 11.6 0 17.4.1 2.3 0 4.5.7 6.6 1.7 6.6 3.1 5.5 11.4 1.3 14.4-2.2 1.6-4.7 2.5-7.5 2.5-6 .1-12 0-18.1 0 0 .1-.1.1-.3 0zm86.3 9.3c.1-.5.1-1 .3-1.4 1.4-5 4.1-8.9 9.1-10.7 5.1-1.8 9.9-1.5 14 2.6 2.6 2.6 4.1 5.9 5 9.5h-28.4z"/></symbol><symbol id="dreibble" viewBox="0 0 279 275" xmlns="http://www.w3.org/2000/svg"><style>.bst0{fill:#fff}</style><path class="bst0" d="M201.2 166.5c-8.1-.3-17.2-4.4-25.3-10.7-.5-.4-1-1.5-.8-2.1 1.5-6.4 3.1-12.8 4.9-19.2.7-2.6 1.9-5 3.2-7.4 5.2-9.2 13.1-14.1 23.8-13.1 11.5 1.1 19.4 7.3 23 18.3 5.4 16.7-8.6 34.6-28.8 34.2z"/><path d="M137.6 250.5c-61-.2-111.9-49.8-112.3-112.2C24.9 75.6 76.2 24 139.7 24.8c61.2.8 111.6 50.6 111.3 113.7-.2 60.7-49.8 112.3-113.4 112zm73.2-107.1c1.6-37.4-31.4-73.1-72.4-73.1-42 0-73.6 36.2-73.1 73.8.4 37.1 32.5 73 74.9 72.1 38.5-.9 71.9-34.8 70.6-72.8z"/><path d="M149.1 154c2.1 6.5 4.4 12.6 6.2 18.8 2.2 8.1 4 16.3 6.1 24.5.4 1.7-.2 2.4-1.6 2.9-20.4 7.1-39.5 4.9-57.3-7.6-1.7-1.2-.9-2.2-.2-3.3 5.5-9.2 12.6-16.8 21.4-22.9 6.9-4.9 14.5-8.6 22.4-11.6.8-.2 1.6-.4 3-.8zm-5-11.6c-10.8 4.1-20.8 9.1-29.5 16-8.8 7-16 15.4-22.3 25-4.6-5.2-8.1-10.8-10.7-17-2.9-7.2-4.1-14.7-4.5-22.4-.1-2 .6-2.8 2.7-2.7 14.5.3 28.8-1.4 42.9-4.2 4.8-1 9.6-2.3 14.4-3.6 1.7-.4 2.8-.2 3.6 1.5 1 2.3 2.1 4.7 3.4 7.4zm-10.5-20.1c-18 5.1-36.1 7.1-54.9 7.5.4-1.5.6-2.8 1-4 5.1-15.8 14.9-27.9 29.1-36.4 2.2-1.3 3.4-1.2 4.8 1.1 6.3 10 12.7 19.9 19.1 29.9.2.5.4 1.1.9 1.9zm-8.4-38.6c14.2-5.5 41.3 1.3 52.9 13.2-4.6 5.7-10 10.6-16.4 14.2-4.2 2.3-8.5 4.3-12.8 6.4-1.1.5-2 .7-2.8-.6l-20.4-32.1c-.2-.3-.3-.7-.5-1.1zm27.2 45.5c6.2-3.6 12.3-6.8 17.9-10.7 5.5-3.9 10.5-8.5 15.8-12.8 7.2 6.4 14.4 25.9 12.4 35.9-3.6-.5-7.1-1.3-10.7-1.4-9.1-.3-18.2-.4-27.3-.5-2 0-3.5-.1-4.3-2.3-1.1-2.8-2.6-5.6-3.8-8.2zm21.2 63.6c-3.9-14.2-7.6-28.1-11.5-42.3 2.4-.3 5-.7 7.5-.8 8.7-.4 17.3.6 25.8 2.7 2.4.6 3.2 1.5 2.5 4.1-3.3 14.1-10.2 25.8-21.8 34.5-.8.7-1.7 1.2-2.5 1.8z"/></symbol><symbol viewBox="0 0 279 275" id="facebook" xmlns="http://www.w3.org/2000/svg"><path d="M104.8 257.4V149.8H81v-35.9h24V85.6c0-5.1.1-10.2.7-15.2 1-7.9 3.1-15.5 7.6-22.2 4.9-7.4 11.9-11.9 20.2-14.6 7.3-2.4 14.9-3.3 22.5-3.3 14.6-.1 29.2-.1 43.9-.1h.6V66h-1c-10.3 0-20.5-.1-30.8 0-2.5 0-5.1.3-7.5.9-4.9 1.1-7.4 4-8 9.1-.3 2.5-.4 5-.4 7.5v30.3h41.8c-2 12-4 23.9-6 35.9h-35.9V256c0 1.5.1 1.3-1.3 1.3h-45.3c-.5.1-.9.1-1.3.1z"/></symbol><symbol viewBox="0 0 279 275" id="in" xmlns="http://www.w3.org/2000/svg"><path d="M137.9 252.8H28c-2.3 0-3.1-.5-3.1-3 .1-73.4.1-146.7 0-220.1 0-2.2.5-3 2.8-3 73.4.1 146.9.1 220.3 0 2.1 0 2.8.5 2.8 2.7-.1 73.5-.1 147.1 0 220.6 0 2.3-.8 2.7-2.8 2.7-36.7.1-73.4.1-110.1.1zm11.4-128.1c0-2.2-.1-4.4 0-6.6.1-2-.8-2.6-2.6-2.6-7.1.1-14.2.1-21.2 0-1.9 0-2.6.6-2.6 2.6v72.6c0 2.3.8 2.8 2.9 2.7 6.8-.1 13.5 0 20.3 0 3.4 0 3.4 0 3.4-3.4v-41.7c0-4 1.7-7.2 4.4-9.9 6-5.8 18.4-5.4 20.9 5.9.7 3 1 6.2 1 9.3.1 12.3 0 24.5.1 36.8 0 1 .1 1.9.1 3.1 7.9 0 15.6-.1 23.2 0 2.1 0 2.8-.5 2.8-2.7-.1-14 0-28-.1-42 0-3.6-.3-7.2-1-10.8-3.5-18-17.5-26.2-34.5-23.6-7.1 1.1-12.4 4.9-17.1 10.3zm-66 68.6c.9.1 1.6.1 2.4.1 7 0 14-.1 21 .1 2.2 0 2.8-.6 2.8-2.8-.1-24.1-.1-48.2 0-72.3 0-2.2-.7-2.9-2.8-2.8-6.7.1-13.3 0-20 0-3.5 0-3.6 0-3.6 3.6V190c0 1 .1 2.1.2 3.3zM111 92.4c.1-8.1-5.8-13.9-14.3-14-8.6-.1-15 5.6-15.1 13.6-.1 7.8 6.1 13.8 14.5 13.9 8.5.1 14.8-5.7 14.9-13.5z"/></symbol><symbol viewBox="0 0 1027.3 336.3" id="logo-header-black" xmlns="http://www.w3.org/2000/svg"><path d="M700.6 157.2H691L585.5 24.6v132.6H574V3h9.7l105.5 133V3h11.5v154.2zM527.3 3v89.6c0 22.2-5.5 38.8-16.5 49.8s-24.9 16.5-41.8 16.5c-18.7 0-33.7-5.7-45.4-17.4-11.5-11.7-17.2-28.6-17.2-50.4V3h12.1v85.9c0 37 19.6 58.6 50.4 58.6 28.2 0 46.3-19.4 46.3-57.5V3h12.1zm227.5 154.2V3h12.1v154.2h-12.1zm44.1-142.7V3h126.2v11.5h-57v142.7H856V14.5h-57.1zM401.5 211.6c0-11.2 4-20.3 12.1-27.5 8.1-7.3 19.2-11 33-11 17 0 32.6 5.9 41.4 15.6l-6.6 9c-8.8-8.8-20.3-13.2-34.4-13.2-20.3 0-32.8 10.6-32.8 27.1 0 42.9 79.7 25.5 79.7 79.1 0 12.1-4.6 21.8-14.1 29.3s-21.1 11.2-35 11.2c-9.5 0-18.9-2-28.2-5.9-9-4.2-15.4-9.5-19.2-16.3l7.3-8.4c8.8 11.7 25.1 19.2 39.9 19.2 10.1 0 18.7-2.6 25.8-7.7 7.3-5.1 10.8-12.1 10.8-21.1.1-43.5-79.7-28.1-79.7-79.4zm141 117.6h-12.1V175.1c2.9 0 9 0 18.7-.2s16.1-.2 18.9-.2c42.7 0 54.8 23.6 54.8 46.5 0 13.2-4.6 24.4-13.9 33.5-9.3 9-22.9 13.7-41 13.7-9.3 0-17.8-.2-25.5-.9v61.7zm0-142.7v69.2c9.5.7 17.8 1.1 25.1 1.1 27.3 0 42.5-14.1 42.5-35.9 0-21.1-13-34.8-41-34.8-8.1 0-16.9.2-26.6.4zm82.8 142.7l67.2-155.5h9.9l67.2 155.5h-13l-22.5-52.4h-74l-22.5 52.4h-12.3zm71.8-138.7l-32.2 74.9H729l-31.9-74.9zm208.8 123.8c-10.6 10.6-29.3 17-47.8 17-23.1 0-41.6-7.3-55.9-21.6-14.3-14.3-21.4-33.5-21.4-57.5 0-22.7 6.8-41.4 20.7-56.4 13.9-15.2 32.2-22.7 54.8-22.7 19.6 0 35 4.8 46.7 14.5l-5.7 9c-10.6-8.1-24.2-12.1-40.7-12.1-18.7 0-33.9 6.4-45.6 19.2-11.7 12.6-17.4 28.9-17.4 48.5 0 20 5.9 36.3 18.1 48.9s28 18.7 47.4 18.7c16.1 0 30.2-4.8 42.1-14.5l4.7 9zm31.9 14.9V175.1h85.2v11.5h-73.1v58.8h66.5v11.5h-66.5v61h75.3v11.5h-87.4zM159.9 326.8C73.4 326.8 3 256.5 3 170 3 83.4 73.4 13.1 159.9 13.1S316.8 83.4 316.8 170c0 86.5-70.4 156.8-156.9 156.8zm0-304.7C78.3 22.1 12 88.4 12 170c0 81.5 66.3 147.9 147.9 147.9S307.8 251.5 307.8 170c0-81.6-66.4-147.9-147.9-147.9z"/><circle cx="84.9" cy="43.5" r="39.4"/><circle cx="312.3" cy="186.1" r="20.5"/></symbol><symbol id="logo-header-white" viewBox="0 0 1027.3 336.3" xmlns="http://www.w3.org/2000/svg"><style>.fst0{fill:#fff}</style><path class="fst0" d="M700.6 157.2H691L585.5 24.6v132.6H574V3h9.7l105.5 133V3h11.5v154.2zM527.3 3v89.6c0 22.2-5.5 38.8-16.5 49.8s-24.9 16.5-41.8 16.5c-18.7 0-33.7-5.7-45.4-17.4-11.5-11.7-17.2-28.6-17.2-50.4V3h12.1v85.9c0 37 19.6 58.6 50.4 58.6 28.2 0 46.3-19.4 46.3-57.5V3h12.1zm227.5 154.2V3h12.1v154.2h-12.1zm44.1-142.7V3h126.2v11.5h-57v142.7H856V14.5h-57.1zM401.5 211.6c0-11.2 4-20.3 12.1-27.5 8.1-7.3 19.2-11 33-11 17 0 32.6 5.9 41.4 15.6l-6.6 9c-8.8-8.8-20.3-13.2-34.4-13.2-20.3 0-32.8 10.6-32.8 27.1 0 42.9 79.7 25.5 79.7 79.1 0 12.1-4.6 21.8-14.1 29.3s-21.1 11.2-35 11.2c-9.5 0-18.9-2-28.2-5.9-9-4.2-15.4-9.5-19.2-16.3l7.3-8.4c8.8 11.7 25.1 19.2 39.9 19.2 10.1 0 18.7-2.6 25.8-7.7 7.3-5.1 10.8-12.1 10.8-21.1.1-43.5-79.7-28.1-79.7-79.4zm141 117.6h-12.1V175.1c2.9 0 9 0 18.7-.2s16.1-.2 18.9-.2c42.7 0 54.8 23.6 54.8 46.5 0 13.2-4.6 24.4-13.9 33.5-9.3 9-22.9 13.7-41 13.7-9.3 0-17.8-.2-25.5-.9v61.7zm0-142.7v69.2c9.5.7 17.8 1.1 25.1 1.1 27.3 0 42.5-14.1 42.5-35.9 0-21.1-13-34.8-41-34.8-8.1 0-16.9.2-26.6.4zm82.8 142.7l67.2-155.5h9.9l67.2 155.5h-13l-22.5-52.4h-74l-22.5 52.4h-12.3zm71.8-138.7l-32.2 74.9H729l-31.9-74.9zm208.8 123.8c-10.6 10.6-29.3 17-47.8 17-23.1 0-41.6-7.3-55.9-21.6-14.3-14.3-21.4-33.5-21.4-57.5 0-22.7 6.8-41.4 20.7-56.4 13.9-15.2 32.2-22.7 54.8-22.7 19.6 0 35 4.8 46.7 14.5l-5.7 9c-10.6-8.1-24.2-12.1-40.7-12.1-18.7 0-33.9 6.4-45.6 19.2-11.7 12.6-17.4 28.9-17.4 48.5 0 20 5.9 36.3 18.1 48.9s28 18.7 47.4 18.7c16.1 0 30.2-4.8 42.1-14.5l4.7 9zm31.9 14.9V175.1h85.2v11.5h-73.1v58.8h66.5v11.5h-66.5v61h75.3v11.5h-87.4zM159.9 326.8C73.4 326.8 3 256.5 3 170 3 83.4 73.4 13.1 159.9 13.1S316.8 83.4 316.8 170c0 86.5-70.4 156.8-156.9 156.8zm0-304.7C78.3 22.1 12 88.4 12 170c0 81.5 66.3 147.9 147.9 147.9S307.8 251.5 307.8 170c0-81.6-66.4-147.9-147.9-147.9z"/><circle class="fst0" cx="84.9" cy="43.5" r="39.4"/><circle class="fst0" cx="312.3" cy="186.1" r="20.5"/></symbol><symbol id="logo-menu" viewBox="0 0 1027.3 412.4" xmlns="http://www.w3.org/2000/svg"><style>.gst0{fill:#fff}</style><path class="gst0" d="M702.6 154.2H693L587.5 21.6v132.6H576V0h9.7l105.5 133V0h11.5v154.2zM529.3 0v89.6c0 22.2-5.5 38.8-16.5 49.8s-24.9 16.5-41.8 16.5c-18.7 0-33.7-5.7-45.4-17.4-11.5-11.7-17.2-28.6-17.2-50.4V0h12.1v85.9c0 37 19.6 58.6 50.4 58.6 28.2 0 46.3-19.4 46.3-57.5V0h12.1zm227.5 154.2V0h12.1v154.2h-12.1zm44.1-142.7V0h126.2v11.5h-57v142.7H858V11.5h-57.1zM403.5 208.6c0-11.2 4-20.3 12.1-27.5 8.1-7.3 19.2-11 33-11 17 0 32.6 5.9 41.4 15.6l-6.6 9c-8.8-8.8-20.3-13.2-34.4-13.2-20.3 0-32.8 10.6-32.8 27.1 0 42.9 79.7 25.5 79.7 79.1 0 12.1-4.6 21.8-14.1 29.3s-21.1 11.2-35 11.2c-9.5 0-18.9-2-28.2-5.9-9-4.2-15.4-9.5-19.2-16.3l7.3-8.4c8.8 11.7 25.1 19.2 39.9 19.2 10.1 0 18.7-2.6 25.8-7.7 7.3-5.1 10.8-12.1 10.8-21.1.1-43.5-79.7-28.1-79.7-79.4zm141 117.6h-12.1V172.1c2.9 0 9 0 18.7-.2s16.1-.2 18.9-.2c42.7 0 54.8 23.6 54.8 46.5 0 13.2-4.6 24.4-13.9 33.5-9.3 9-22.9 13.7-41 13.7-9.3 0-17.8-.2-25.5-.9v61.7zm0-142.7v69.2c9.5.7 17.8 1.1 25.1 1.1 27.3 0 42.5-14.1 42.5-35.9 0-21.1-13-34.8-41-34.8-8.1 0-16.9.2-26.6.4zm82.8 142.7l67.2-155.5h9.9l67.2 155.5h-13l-22.5-52.4h-74l-22.5 52.4h-12.3zm71.8-138.7l-32.2 74.9H731l-31.9-74.9zm208.8 123.8c-10.6 10.6-29.3 17-47.8 17-23.1 0-41.6-7.3-55.9-21.6-14.3-14.3-21.4-33.5-21.4-57.5 0-22.7 6.8-41.4 20.7-56.4 13.9-15.2 32.2-22.7 54.8-22.7 19.6 0 35 4.8 46.7 14.5l-5.7 9c-10.6-8.1-24.2-12.1-40.7-12.1-18.7 0-33.9 6.4-45.6 19.2-11.7 12.6-17.4 28.9-17.4 48.5 0 20 5.9 36.3 18.1 48.9s28 18.7 47.4 18.7c16.1 0 30.2-4.8 42.1-14.5l4.7 9zm31.9 14.9V172.1h85.2v11.5h-73.1v58.8h66.5v11.5h-66.5v61h75.3v11.5h-87.4zM424.9 384.3c0 2.8-1.1 5.2-3.2 7.2s-4.7 3-7.7 3c-4.8 0-8.5-2.3-11-6.8l4.1-2.9c1.6 3.4 3.9 5 6.9 5 1.6 0 2.9-.5 4-1.5s1.6-2.3 1.6-3.8c0-1.4-.5-2.5-1.4-3.2-.9-.7-2.8-1.7-5.8-2.9-5-2.1-7.5-5-7.5-8.7 0-2.4.9-4.5 2.8-6.2 1.8-1.7 4-2.5 6.4-2.5 3.6 0 6.4 1.7 8.3 5.2l-3.7 2.6c-1.3-2-2.8-3.1-4.7-3.1-1.2 0-2.2.4-3 1.2-.9.8-1.3 1.6-1.3 2.6s.4 1.9 1.2 2.6c.8.8 2.5 1.6 4.9 2.6 3.1 1.2 5.4 2.5 6.8 4 1.5 1.4 2.3 3.3 2.3 5.6zm37.9-6.6c0 4.7-1.7 8.7-5 11.9-3.3 3.2-7.3 4.8-12 4.8-4.8 0-8.8-1.6-12-4.8-3.3-3.2-4.9-7.2-4.9-12 0-4.6 1.6-8.5 4.9-11.8 3.3-3.3 7.3-4.9 12-4.9s8.7 1.6 12 4.9c3.3 3.4 5 7.3 5 11.9zm-5.4.1c0-3.3-1.1-6-3.4-8.3-2.3-2.3-5-3.4-8.2-3.4-3.2 0-6 1.1-8.2 3.4-2.2 2.3-3.3 5.1-3.3 8.3 0 3.3 1.1 6.1 3.3 8.4s5 3.4 8.2 3.4c3.2 0 6-1.1 8.2-3.4 2.3-2.3 3.4-5.1 3.4-8.4zm24.1-34.2c-1.2-.8-2.4-1.1-3.7-1.1-1.9 0-2.9 1.8-2.9 5.5v14h6.1v4.9h-6.1v26.6h-5.3v-26.6h-4.2V362h4.2v-14.7c0-6.6 2.7-9.9 8.1-9.9 1.2 0 2.5.3 3.8.9v5.3zm14 23.3h-4.9v26.6h-5.3v-26.6h-3.6V362h3.6v-13.5h5.3V362h4.9v4.9z"/><path class="gst0" d="M545.7 362l-14.4 32.8-10.9-22.9-10.9 22.9-14.4-32.8h5.7l8.9 21.3 10.7-22.6 10.7 22.6 9-21.3h5.6zm33.6 31.5H574v-5.3c-2.9 4.2-6.8 6.3-11.5 6.3-4.4 0-8-1.6-10.9-4.8-2.9-3.2-4.3-7.2-4.3-12 0-4.9 1.4-8.9 4.3-12 2.9-3.1 6.5-4.7 11-4.7 2.4 0 4.6.6 6.7 1.8 2 1.1 3.6 2.7 4.7 4.6V362h5.3v31.5zm-5-15.8c0-3.6-1-6.5-3.1-8.7-2.1-2.2-4.7-3.3-7.9-3.3-3 0-5.5 1.1-7.6 3.4-2 2.3-3 5.1-3 8.5 0 3.5 1 6.4 3.1 8.8s4.6 3.5 7.8 3.5c3.1 0 5.7-1.1 7.8-3.4 1.9-2.3 2.9-5.2 2.9-8.8zm31.3-15.7l-1.5 5.2c-.9-.8-2-1.2-3.5-1.2-2.3 0-4.1 1.2-5.5 3.6-1.2 2.2-1.8 4.9-1.8 8.1v15.9H588V362h5.1v5c2.1-3.9 4.7-5.9 7.9-5.9 1.5 0 3 .3 4.6.9zm33.2 17.1h-26.5c.3 3 1.4 5.5 3.5 7.5s4.5 3 7.3 3c4.6 0 7.9-1.7 10.1-5l4.1 2.7c-3.5 4.8-8.2 7.3-14.1 7.3-4.4 0-8.1-1.6-11.2-4.9-3-3.3-4.6-7.2-4.6-11.9 0-4.6 1.5-8.5 4.6-11.8 3.1-3.3 6.8-4.9 11.1-4.9 4.4 0 8.1 1.6 11.2 4.9 3.1 3.3 4.6 7.2 4.6 11.8v1.3zm-4.9-4.4c-.7-2.5-2-4.6-4.1-6.3-2.1-1.8-4.4-2.6-6.8-2.6-2.4 0-4.7.9-6.7 2.6-2 1.7-3.4 3.8-4 6.3h21.6zm61.3 18.8h-5V388c-2.9 4.3-6.9 6.4-11.9 6.4-4.3 0-7.9-1.6-10.8-4.7-2.9-3.2-4.3-7.1-4.3-11.8 0-5 1.4-9 4.2-12.2 2.8-3.2 6.5-4.8 10.9-4.8 4.8 0 8.7 2.2 11.8 6.5 0-.6 0-1.6-.1-3-.1-1.5-.1-2.6-.1-3.4v-22.7h5.3v55.2zm-5-16.2c0-3.4-1-6.1-3.1-8.3-2.1-2.2-4.7-3.3-7.8-3.3s-5.6 1.1-7.7 3.4c-2 2.3-3 5.1-3 8.5 0 3.6 1 6.6 3 8.9 2 2.3 4.6 3.4 7.8 3.4s5.8-1.2 7.8-3.5 3-5.3 3-9.1zm42.9 1.8h-26.5c.3 3 1.4 5.5 3.5 7.5s4.5 3 7.3 3c4.6 0 7.9-1.7 10.1-5l4.1 2.7c-3.5 4.8-8.2 7.3-14.1 7.3-4.4 0-8.1-1.6-11.2-4.9-3-3.3-4.6-7.2-4.6-11.9 0-4.6 1.5-8.5 4.6-11.8 3.1-3.3 6.8-4.9 11.1-4.9 4.4 0 8.1 1.6 11.2 4.9 3.1 3.3 4.6 7.2 4.6 11.8v1.3zm-4.9-4.4c-.7-2.5-2-4.6-4.1-6.3-2.1-1.8-4.4-2.6-6.8-2.6-2.4 0-4.7.9-6.7 2.6-2 1.7-3.4 3.8-4 6.3h21.6zm37.3-12.7L750 394.6 734.5 362h5.7l9.8 22.1 9.9-22.1h5.6zm33 17.1H772c.3 3 1.4 5.5 3.5 7.5s4.5 3 7.3 3c4.6 0 7.9-1.7 10.1-5l4.1 2.7c-3.5 4.8-8.2 7.3-14.1 7.3-4.4 0-8.1-1.6-11.2-4.9-3-3.3-4.6-7.2-4.6-11.9 0-4.6 1.5-8.5 4.6-11.8 3.1-3.3 6.8-4.9 11.1-4.9 4.4 0 8.1 1.6 11.2 4.9 3.1 3.3 4.6 7.2 4.6 11.8v1.3zm-4.9-4.4c-.7-2.5-2-4.6-4.1-6.3-2.1-1.8-4.4-2.6-6.8-2.6-2.4 0-4.7.9-6.7 2.6-2 1.7-3.4 3.8-4 6.3h21.6zm16.5 18.8h-5.3v-55.2h5.3v55.2zm40.3-15.8c0 4.7-1.7 8.7-5 11.9-3.3 3.2-7.3 4.8-12 4.8-4.8 0-8.8-1.6-12-4.8-3.3-3.2-4.9-7.2-4.9-12 0-4.6 1.6-8.5 4.9-11.8 3.3-3.3 7.3-4.9 12-4.9s8.7 1.6 12 4.9c3.3 3.4 5 7.3 5 11.9zm-5.4.1c0-3.3-1.1-6-3.4-8.3-2.3-2.3-5-3.4-8.2-3.4-3.2 0-6 1.1-8.2 3.4-2.2 2.3-3.3 5.1-3.3 8.3 0 3.3 1.1 6.1 3.3 8.4s5 3.4 8.2 3.4c3.2 0 6-1.1 8.2-3.4 2.3-2.3 3.4-5.1 3.4-8.4zm43.6-.1c0 4.9-1.4 8.9-4.3 12.1-2.9 3.2-6.5 4.7-10.9 4.7-5 0-9-2.1-11.9-6.3 0 .5.1 1.3.2 2.6s.2 2.2.2 2.8v18.8h-5.3V362h4.9v5.5c3.1-4.3 7-6.4 11.8-6.4 4.4 0 8 1.6 11 4.8 2.8 3.1 4.3 7.1 4.3 11.8zm-5.4.1c0-3.5-1-6.4-3.1-8.6-2-2.3-4.6-3.4-7.8-3.4-3 0-5.6 1.2-7.7 3.5-2.1 2.3-3.2 5.2-3.2 8.6 0 3.5 1 6.4 3 8.7 2 2.3 4.7 3.4 7.9 3.4 3.1 0 5.7-1.1 7.7-3.4 2.2-2.4 3.2-5.3 3.2-8.8zm53.9 15.7h-5.3v-19.1c0-5.8-2-8.7-5.9-8.7-4.8 0-7.3 3.5-7.3 10.5v17.3h-5.2v-19.1c0-5.8-1.9-8.7-5.7-8.7-2.3 0-4.1 1-5.5 3-1.3 2-2 4.8-2 8.5v16.3H895V362h5v4.8c2.4-3.8 5.3-5.7 8.8-5.7 2 0 3.8.6 5.4 1.7 1.5 1 2.5 2.3 3.1 3.9.8-1.5 2-2.8 3.5-3.9 1.8-1.2 3.7-1.8 5.8-1.8 6.9 0 10.4 4.3 10.4 12.9v19.6zm37.7-14.4h-26.5c.3 3 1.4 5.5 3.5 7.5s4.5 3 7.3 3c4.6 0 7.9-1.7 10.1-5l4.1 2.7c-3.5 4.8-8.2 7.3-14.1 7.3-4.4 0-8.1-1.6-11.2-4.9-3-3.3-4.6-7.2-4.6-11.9 0-4.6 1.5-8.5 4.6-11.8 3.1-3.3 6.8-4.9 11.1-4.9 4.4 0 8.1 1.6 11.2 4.9 3.1 3.3 4.6 7.2 4.6 11.8v1.3zm-4.8-4.4c-.7-2.5-2-4.6-4.1-6.3-2.1-1.8-4.4-2.6-6.8-2.6-2.4 0-4.7.9-6.7 2.6-2 1.7-3.4 3.8-4 6.3H970zm37.2 18.8h-5.3v-19c0-3.1-.5-5.3-1.6-6.7s-2.9-2.1-5.4-2.1c-2.6 0-4.7 1.1-6.2 3.4-1.5 2.1-2.2 4.9-2.2 8.4v16h-5.3V362h5v4.5c2.5-3.6 5.8-5.4 9.9-5.4 7.4 0 11.1 4.3 11.1 12.9v19.5zm18.1-26.6h-4.9v26.6h-5.3v-26.6h-3.6V362h3.6v-13.5h5.3V362h4.9v4.9zM156.9 356.8C70.4 356.8 0 286.5 0 200 0 113.4 70.4 43.1 156.9 43.1S313.8 113.4 313.8 200c0 86.5-70.4 156.8-156.9 156.8zm0-304.7C75.3 52.1 9 118.4 9 200c0 81.5 66.3 147.9 147.9 147.9S304.8 281.5 304.8 200c0-81.6-66.4-147.9-147.9-147.9z"/><circle class="gst0" cx="81.9" cy="73.5" r="39.4"/><circle class="gst0" cx="309.3" cy="201.1" r="20.5"/></symbol><symbol viewBox="0 0 279 275" id="mail" xmlns="http://www.w3.org/2000/svg"><path d="M275.7 75.5c-.4.9-1 2.4-2.2 4-2.5 3.5-5.5 5.2-6.4 5.7-2.4 1.4-35.5 26.5-102.3 76.1-.6.5-1.3.9-1.9 1.4-17.9 12.3-26.5 12.7-44 0C83.3 136.7 48 110.2 12.6 84c-9-6.7-7.1-16.1-6.1-24.7 1.7-13.8 12.2-21.9 26.9-21.9 47.1-.1 94.3 0 141.4 0h69.5c18.5 0 24.9 4.3 31.4 21.4.3 2.4.6 5.1.6 8.1 0 3.2-.3 6.1-.6 8.6z"/><path d="M275 217.1c0 2-.3 5.7-2.3 9.7-.5.9-2.7 5.1-8.2 8.5-8.5 5.2-18 4.3-20.1 4.3H35.9c-20.2 0-29.8-9.6-29.8-29.6 0-62.8-.1-92.5.1-98.3v-.4c.1-1.4.1-2.2.2-3 .2-1.1.2-1.6.5-2.2.3-.6.8-1 1.1-1.2.2-.2.7-.3 1.5-.3 0 0 2.6 1.1 5.2 2.5 4.2 2.3 62.7 46.4 91.5 67.5 26.9 19.6 43.1 19.4 69.9-.4 30.8-22.7 61.6-45.5 92.4-68.4 2.5-1.9 4.7-3.1 7.2-.3-.3 37.2-.5 74.4-.7 111.6z"/></symbol><symbol viewBox="0 0 279 275" id="phone" xmlns="http://www.w3.org/2000/svg"><path d="M17.7 84.4c0-10.4 2-21.5 6.5-32.2 4.5-10.6 10.9-19.8 19.5-27.5 5.1-4.5 10.3-8.9 15.6-13.2 2.6-2.2 5.6-3.7 9-4.3 3.8-.6 7.3.2 10.6 2 4.6 2.5 8 6.3 11.2 10.3 4.3 5.4 7.8 11.3 11.5 17.1 2.7 4.2 5.4 8.5 7.5 13 2.2 4.7 4 9.5 4.5 14.6.7 7.1-1.1 13.4-6 18.7-2.8 3-6 5.6-9 8.4-2.9 2.7-6.2 4.9-9.4 7.2-3.9 2.8-6.8 6.3-8.1 11.1-1 3.9-.8 7.9.1 11.8 1.3 5.4 3.6 10.4 6.3 15.2 4.7 8.4 10.5 16.1 16.7 23.5 5.8 7 11.9 13.8 18.6 20 6 5.7 12.3 10.9 19.6 14.8 4 2.1 8.2 3.7 12.7 4 5.3.4 9.9-1.4 13.9-4.9.9-.8 1.8-1.5 2.5-2.4 3.4-4 7.5-7.4 11.5-10.8 2.3-1.9 4.6-3.8 7.1-5.4 6.3-3.8 13-4.1 20-1.9 5.6 1.8 10.7 4.7 15.3 8.4 5.6 4.4 11 9.1 16.4 13.7 3.9 3.3 7.6 6.8 10.8 10.8 2.3 2.8 4.2 5.8 5.5 9.3 2.1 5.9 1 11.2-3 15.9-1.8 2.2-4 4.1-6.2 6.1-3.7 3.4-7.4 6.8-11.2 10-7.8 6.6-16.6 11.4-26.4 14.5-9.2 2.9-18.7 4.1-28.3 3.7-13.8-.5-26.9-4.2-39.4-9.9-13.4-6.1-25.5-14.3-36.9-23.6-7.8-6.4-15.1-13.2-22.1-20.4-12.3-12.7-23.8-26.2-34-40.6-8.5-12-16.1-24.6-22-38.1-4.6-10.5-8-21.4-9.7-32.7-.8-5.1-1.2-10-1.2-16.2z"/></symbol><symbol id="tel" viewBox="0 0 309 311" xmlns="http://www.w3.org/2000/svg"><style>.jst0{fill:#fff}</style><path class="jst0" d="M66.6 9.5c5.1 4.2 11.9 10.3 19.5 18.2 1.6 1.7 4.1 4.3 7.2 7.9 5.1 6 11.8 14.7 20.1 28.6 3.4 5.7 6.8 11.3 8 18.1 1.6 9.5-1.4 17-9.4 21.8-6 3.6-11.9 7.4-17.5 11.5-7.7 5.6-7.8 12.9-4.1 22.2 4.9 12.4 13 22.8 22.1 32.3 8.9 9.3 17.9 18.6 27.4 27.3 10.6 9.7 21.8 18.8 36.1 22.6 8.4 2.2 13.4.2 18.4-7.2 4-5.9 7.9-11.9 11.8-18 4.9-7.8 15.9-10.5 26.4-5.8 14 6.2 26.1 15.6 38.1 24.9 8.3 6.5 15.6 14.2 23.5 21.1 11 9.5 10.6 24.6 3.5 34.7-7.5 10.5-15.9 20.5-27 27.8-5.9 3.9-12.3 5.5-19.3 5.9-21.9 1.3-41-6.7-59.8-16.7-20.2-10.7-38.7-23.8-56.4-38-16.8-13.5-33.5-27.4-48-43.5-18.6-20.7-36.6-41.9-51.7-65.3C23.4 121.2 12.4 102 7.3 80 4.9 69.6 4 60.8 6.3 51.2 10 35.4 20.3 25.8 25 21.5 31.5 15.6 43 5 57.3 6.7c4 .5 7.2 1.7 9.3 2.8z"/></symbol><symbol viewBox="0 0 279 275" id="telegram" xmlns="http://www.w3.org/2000/svg"><path d="M149.7 198.4c-9.1 9.1-17.9 17.9-26.8 26.7-9.6 9.6-15 8.2-19.2-4.9-6-18.7-12.1-37.5-17.9-56.3-1.3-4.3-3.5-6.6-7.8-8-14.7-4.6-29.3-9.7-43.9-14.6 0 0-1.3-.4-3.1-1.1-1.2-.5-4.4-1.8-7.7-4.3-.9-.7-1.6-1.3-1.9-2.4-.3-1-.1-1.9 0-2.4.5-.7 1.2-1.6 2.2-2.7 2.7-2.7 5.5-4.1 7-4.7C48 116.3 134.7 83.2 189.4 62c17.9-6.9 35.9-13.9 53.8-20.8 5.1-2 10.5-3.8 15.3.2 5 4.2 4.2 9.8 3 15.5-11.6 56-23.1 112.1-34.5 168.2-.2 1.1-.6 2.2-.8 3.3-3.3 14.3-12.8 17.9-24.7 9-12.6-9.3-25-18.9-37.5-28.3-4.7-3.5-9.3-7-14.3-10.7zM111 213.6c.6-.1 1.3-.1 1.9-.2.5-2.5 1.1-4.9 1.4-7.4.9-8.5 1.1-17 2.6-25.4.7-4.1 2.7-8.6 5.6-11.5 10.4-10.5 21.4-20.4 32.2-30.5 18.6-17.6 37.3-35 55.8-52.6 2.8-2.6 4.8-6.1 7.2-9.1 1.5-1.6 5.2-5.6 4.6-6.3-.6-.7-5.3 2.4-7.1 3.6-20.7 13-41.5 26-62.1 39.3-20.6 13.3-41.2 26.6-61.9 39.7 6.8 20.7 13.3 40.5 19.8 60.4z"/></symbol><symbol id="up" viewBox="0 0 279 275" xmlns="http://www.w3.org/2000/svg"><style>.lst0{fill:#fff}</style><path d="M168.1 182.7c-3.8 18.9-7.5 37.3-11.3 55.9H130c.9-4.2 1.7-8.2 2.5-12.2 4.4-20.6 8.9-41.2 13.4-61.8.4-1.7.1-3-.8-4.6-5.8-9.2-11.5-18.6-17.5-28.2v2.8c.1 8.3-.1 16.5-2.8 24.4-7.5 22-28.8 36.4-51.9 34.8-26-1.8-44.7-22.1-47.4-44.7-.3-2.3-.5-4.7-.5-7V73.2h25.4v68c0 12 7.7 22 18.9 24.7 15.8 3.9 30.8-7.9 30.9-24.3.1-21.9 0-43.8 0-65.7v-3.2h26.4c6.1 20 14.9 38.7 26.1 56.4 1.8-4.3 3.3-8.5 5.3-12.4 7.8-15.1 19.5-25.3 36.5-28.7 28.8-5.8 58 15.2 61.5 44.5 3.4 28-13.5 53.2-40.3 59.2-15.7 3.6-30.7.5-44.8-7.2-.8-.6-1.6-1.2-2.8-1.8zm33.1-16.2c20.2.5 34.2-17.4 28.7-34.2-3.6-11-11.5-17.2-23-18.3-10.7-1-18.6 3.9-23.8 13.1-1.3 2.3-2.5 4.8-3.2 7.4-1.8 6.3-3.3 12.7-4.9 19.2-.1.6.3 1.7.8 2.1 8.2 6.3 17.3 10.3 25.4 10.7z"/><path class="lst0" d="M201.2 166.5c-8.1-.3-17.2-4.4-25.3-10.7-.5-.4-1-1.5-.8-2.1 1.5-6.4 3.1-12.8 4.9-19.2.7-2.6 1.9-5 3.2-7.4 5.2-9.2 13.1-14.1 23.8-13.1 11.5 1.1 19.4 7.3 23 18.3 5.4 16.7-8.6 34.6-28.8 34.2z"/></symbol></svg>