<?xml version="1.0" encoding="utf-8"?>
<!-- Generator: Adobe Illustrator 21.0.0, SVG Export Plug-In . SVG Version: 6.00 Build 0)  -->
<svg version="1.1" id="Слой_1" xmlns="http://www.w3.org/2000/svg" xmlns:xlink="http://www.w3.org/1999/xlink" x="0px" y="0px"
	 viewBox="0 0 1027.3 336.3" style="enable-background:new 0 0 1027.3 336.3;" xml:space="preserve">
<style type="text/css">
	.st0{fill:#FFFFFF;}
</style>
<g>
	<path class="st0" d="M700.6,157.2H691L585.5,24.6v132.6H574V3h9.7l105.5,133V3h11.5V157.2z"/>
	<path class="st0" d="M527.3,3v89.6c0,22.2-5.5,38.8-16.5,49.8c-11,11-24.9,16.5-41.8,16.5c-18.7,0-33.7-5.7-45.4-17.4
		c-11.5-11.7-17.2-28.6-17.2-50.4V3h12.1v85.9c0,37,19.6,58.6,50.4,58.6c28.2,0,46.3-19.4,46.3-57.5V3H527.3z"/>
	<path class="st0" d="M754.8,157.2V3h12.1v154.2H754.8z"/>
	<path class="st0" d="M798.9,14.5V3h126.2v11.5h-57v142.7h-12.1V14.5H798.9z"/>
</g>
<g>
	<path class="st0" d="M401.5,211.6c0-11.2,4-20.3,12.1-27.5c8.1-7.3,19.2-11,33-11c17,0,32.6,5.9,41.4,15.6l-6.6,9
		c-8.8-8.8-20.3-13.2-34.4-13.2c-20.3,0-32.8,10.6-32.8,27.1c0,42.9,79.7,25.5,79.7,79.1c0,12.1-4.6,21.8-14.1,29.3
		c-9.5,7.5-21.1,11.2-35,11.2c-9.5,0-18.9-2-28.2-5.9c-9-4.2-15.4-9.5-19.2-16.3l7.3-8.4c8.8,11.7,25.1,19.2,39.9,19.2
		c10.1,0,18.7-2.6,25.8-7.7c7.3-5.1,10.8-12.1,10.8-21.1C481.3,247.5,401.5,262.9,401.5,211.6z"/>
	<path class="st0" d="M542.5,329.2h-12.1V175.1c2.9,0,9,0,18.7-0.2c9.7-0.2,16.1-0.2,18.9-0.2c42.7,0,54.8,23.6,54.8,46.5
		c0,13.2-4.6,24.4-13.9,33.5c-9.3,9-22.9,13.7-41,13.7c-9.3,0-17.8-0.2-25.5-0.9V329.2z M542.5,186.5v69.2
		c9.5,0.7,17.8,1.1,25.1,1.1c27.3,0,42.5-14.1,42.5-35.9c0-21.1-13-34.8-41-34.8C561,186.1,552.2,186.3,542.5,186.5z"/>
	<path class="st0" d="M625.3,329.2l67.2-155.5h9.9l67.2,155.5h-13l-22.5-52.4h-74l-22.5,52.4H625.3z M697.1,190.5l-32.2,74.9H729
		L697.1,190.5z"/>
	<path class="st0" d="M905.9,314.3c-10.6,10.6-29.3,17-47.8,17c-23.1,0-41.6-7.3-55.9-21.6c-14.3-14.3-21.4-33.5-21.4-57.5
		c0-22.7,6.8-41.4,20.7-56.4c13.9-15.2,32.2-22.7,54.8-22.7c19.6,0,35,4.8,46.7,14.5l-5.7,9c-10.6-8.1-24.2-12.1-40.7-12.1
		c-18.7,0-33.9,6.4-45.6,19.2c-11.7,12.6-17.4,28.9-17.4,48.5c0,20,5.9,36.3,18.1,48.9s28,18.7,47.4,18.7c16.1,0,30.2-4.8,42.1-14.5
		L905.9,314.3z"/>
	<path class="st0" d="M937.8,329.2V175.1h85.2v11.5h-73.1v58.8h66.5v11.5h-66.5v61h75.3v11.5H937.8z"/>
</g>
<g>
	<path class="st0" d="M159.9,326.8C73.4,326.8,3,256.5,3,170C3,83.4,73.4,13.1,159.9,13.1S316.8,83.4,316.8,170
		C316.8,256.5,246.4,326.8,159.9,326.8z M159.9,22.1C78.3,22.1,12,88.4,12,170c0,81.5,66.3,147.9,147.9,147.9S307.8,251.5,307.8,170
		C307.8,88.4,241.4,22.1,159.9,22.1z"/>
</g>
<circle class="st0" cx="84.9" cy="43.5" r="39.4"/>
<circle class="st0" cx="312.3" cy="186.1" r="20.5"/>
</svg>
