<?xml version="1.0" encoding="utf-8"?>
<!-- Generator: Adobe Illustrator 21.0.0, SVG Export Plug-In . SVG Version: 6.00 Build 0)  -->
<svg version="1.1" id="Слой_1" xmlns="http://www.w3.org/2000/svg" xmlns:xlink="http://www.w3.org/1999/xlink" x="0px" y="0px"
	 viewBox="0 0 1027.3 412.4" style="enable-background:new 0 0 1027.3 412.4;" xml:space="preserve">
<style type="text/css">
	.st0{fill:#FFFFFF;}
</style>
<g>
	<g>
		<path class="st0" d="M702.6,154.2H693L587.5,21.6v132.6H576V0h9.7l105.5,133V0h11.5V154.2z"/>
		<path class="st0" d="M529.3,0v89.6c0,22.2-5.5,38.8-16.5,49.8c-11,11-24.9,16.5-41.8,16.5c-18.7,0-33.7-5.7-45.4-17.4
			c-11.5-11.7-17.2-28.6-17.2-50.4V0h12.1v85.9c0,37,19.6,58.6,50.4,58.6c28.2,0,46.3-19.4,46.3-57.5V0H529.3z"/>
		<path class="st0" d="M756.8,154.2V0h12.1v154.2H756.8z"/>
		<path class="st0" d="M800.9,11.5V0h126.2v11.5h-57v142.7h-12.1V11.5H800.9z"/>
	</g>
	<g>
		<path class="st0" d="M403.5,208.6c0-11.2,4-20.3,12.1-27.5c8.1-7.3,19.2-11,33-11c17,0,32.6,5.9,41.4,15.6l-6.6,9
			c-8.8-8.8-20.3-13.2-34.4-13.2c-20.3,0-32.8,10.6-32.8,27.1c0,42.9,79.7,25.5,79.7,79.1c0,12.1-4.6,21.8-14.1,29.3
			c-9.5,7.5-21.1,11.2-35,11.2c-9.5,0-18.9-2-28.2-5.9c-9-4.2-15.4-9.5-19.2-16.3l7.3-8.4c8.8,11.7,25.1,19.2,39.9,19.2
			c10.1,0,18.7-2.6,25.8-7.7c7.3-5.1,10.8-12.1,10.8-21.1C483.3,244.5,403.5,259.9,403.5,208.6z"/>
		<path class="st0" d="M544.5,326.2h-12.1V172.1c2.9,0,9,0,18.7-0.2c9.7-0.2,16.1-0.2,18.9-0.2c42.7,0,54.8,23.6,54.8,46.5
			c0,13.2-4.6,24.4-13.9,33.5c-9.3,9-22.9,13.7-41,13.7c-9.3,0-17.8-0.2-25.5-0.9V326.2z M544.5,183.5v69.2
			c9.5,0.7,17.8,1.1,25.1,1.1c27.3,0,42.5-14.1,42.5-35.9c0-21.1-13-34.8-41-34.8C563,183.1,554.2,183.3,544.5,183.5z"/>
		<path class="st0" d="M627.3,326.2l67.2-155.5h9.9l67.2,155.5h-13l-22.5-52.4h-74l-22.5,52.4H627.3z M699.1,187.5l-32.2,74.9H731
			L699.1,187.5z"/>
		<path class="st0" d="M907.9,311.3c-10.6,10.6-29.3,17-47.8,17c-23.1,0-41.6-7.3-55.9-21.6c-14.3-14.3-21.4-33.5-21.4-57.5
			c0-22.7,6.8-41.4,20.7-56.4c13.9-15.2,32.2-22.7,54.8-22.7c19.6,0,35,4.8,46.7,14.5l-5.7,9c-10.6-8.1-24.2-12.1-40.7-12.1
			c-18.7,0-33.9,6.4-45.6,19.2c-11.7,12.6-17.4,28.9-17.4,48.5c0,20,5.9,36.3,18.1,48.9s28,18.7,47.4,18.7
			c16.1,0,30.2-4.8,42.1-14.5L907.9,311.3z"/>
		<path class="st0" d="M939.8,326.2V172.1h85.2v11.5h-73.1v58.8h66.5v11.5h-66.5v61h75.3v11.5H939.8z"/>
	</g>
	<g>
		<path class="st0" d="M424.9,384.3c0,2.8-1.1,5.2-3.2,7.2c-2.1,2-4.7,3-7.7,3c-4.8,0-8.5-2.3-11-6.8l4.1-2.9c1.6,3.4,3.9,5,6.9,5
			c1.6,0,2.9-0.5,4-1.5c1.1-1,1.6-2.3,1.6-3.8c0-1.4-0.5-2.5-1.4-3.2c-0.9-0.7-2.8-1.7-5.8-2.9c-5-2.1-7.5-5-7.5-8.7
			c0-2.4,0.9-4.5,2.8-6.2c1.8-1.7,4-2.5,6.4-2.5c3.6,0,6.4,1.7,8.3,5.2l-3.7,2.6c-1.3-2-2.8-3.1-4.7-3.1c-1.2,0-2.2,0.4-3,1.2
			c-0.9,0.8-1.3,1.6-1.3,2.6c0,1,0.4,1.9,1.2,2.6c0.8,0.8,2.5,1.6,4.9,2.6c3.1,1.2,5.4,2.5,6.8,4C424.1,380.1,424.9,382,424.9,384.3
			z"/>
		<path class="st0" d="M462.8,377.7c0,4.7-1.7,8.7-5,11.9c-3.3,3.2-7.3,4.8-12,4.8c-4.8,0-8.8-1.6-12-4.8c-3.3-3.2-4.9-7.2-4.9-12
			c0-4.6,1.6-8.5,4.9-11.8c3.3-3.3,7.3-4.9,12-4.9c4.7,0,8.7,1.6,12,4.9C461.1,369.2,462.8,373.1,462.8,377.7z M457.4,377.8
			c0-3.3-1.1-6-3.4-8.3c-2.3-2.3-5-3.4-8.2-3.4c-3.2,0-6,1.1-8.2,3.4c-2.2,2.3-3.3,5.1-3.3,8.3c0,3.3,1.1,6.1,3.3,8.4s5,3.4,8.2,3.4
			c3.2,0,6-1.1,8.2-3.4C456.3,383.9,457.4,381.1,457.4,377.8z"/>
		<path class="st0" d="M481.5,343.6c-1.2-0.8-2.4-1.1-3.7-1.1c-1.9,0-2.9,1.8-2.9,5.5v14h6.1v4.9h-6.1v26.6h-5.3v-26.6h-4.2V362h4.2
			v-14.7c0-6.6,2.7-9.9,8.1-9.9c1.2,0,2.5,0.3,3.8,0.9V343.6z"/>
		<path class="st0" d="M495.5,366.9h-4.9v26.6h-5.3v-26.6h-3.6V362h3.6v-13.5h5.3V362h4.9V366.9z"/>
		<path class="st0" d="M545.7,362l-14.4,32.8l-10.9-22.9l-10.9,22.9L495.1,362h5.7l8.9,21.3l10.7-22.6l10.7,22.6l9-21.3H545.7z"/>
		<path class="st0" d="M579.3,393.5H574v-5.3c-2.9,4.2-6.8,6.3-11.5,6.3c-4.4,0-8-1.6-10.9-4.8c-2.9-3.2-4.3-7.2-4.3-12
			c0-4.9,1.4-8.9,4.3-12c2.9-3.1,6.5-4.7,11-4.7c2.4,0,4.6,0.6,6.7,1.8c2,1.1,3.6,2.7,4.7,4.6V362h5.3V393.5z M574.3,377.7
			c0-3.6-1-6.5-3.1-8.7c-2.1-2.2-4.7-3.3-7.9-3.3c-3,0-5.5,1.1-7.6,3.4c-2,2.3-3,5.1-3,8.5c0,3.5,1,6.4,3.1,8.8s4.6,3.5,7.8,3.5
			c3.1,0,5.7-1.1,7.8-3.4C573.3,384.2,574.3,381.3,574.3,377.7z"/>
		<path class="st0" d="M605.6,362l-1.5,5.2c-0.9-0.8-2-1.2-3.5-1.2c-2.3,0-4.1,1.2-5.5,3.6c-1.2,2.2-1.8,4.9-1.8,8.1v15.9h-5.3V362
			h5.1v5c2.1-3.9,4.7-5.9,7.9-5.9C602.5,361.1,604,361.4,605.6,362z"/>
		<path class="st0" d="M638.8,379.1h-26.5c0.3,3,1.4,5.5,3.5,7.5s4.5,3,7.3,3c4.6,0,7.9-1.7,10.1-5l4.1,2.7
			c-3.5,4.8-8.2,7.3-14.1,7.3c-4.4,0-8.1-1.6-11.2-4.9c-3-3.3-4.6-7.2-4.6-11.9c0-4.6,1.5-8.5,4.6-11.8c3.1-3.3,6.8-4.9,11.1-4.9
			c4.4,0,8.1,1.6,11.2,4.9c3.1,3.3,4.6,7.2,4.6,11.8V379.1z M633.9,374.7c-0.7-2.5-2-4.6-4.1-6.3c-2.1-1.8-4.4-2.6-6.8-2.6
			c-2.4,0-4.7,0.9-6.7,2.6c-2,1.7-3.4,3.8-4,6.3H633.9z"/>
		<path class="st0" d="M695.2,393.5h-5v-5.5c-2.9,4.3-6.9,6.4-11.9,6.4c-4.3,0-7.9-1.6-10.8-4.7c-2.9-3.2-4.3-7.1-4.3-11.8
			c0-5,1.4-9,4.2-12.2c2.8-3.2,6.5-4.8,10.9-4.8c4.8,0,8.7,2.2,11.8,6.5c0-0.6,0-1.6-0.1-3c-0.1-1.5-0.1-2.6-0.1-3.4v-22.7h5.3
			V393.5z M690.2,377.3c0-3.4-1-6.1-3.1-8.3c-2.1-2.2-4.7-3.3-7.8-3.3s-5.6,1.1-7.7,3.4c-2,2.3-3,5.1-3,8.5c0,3.6,1,6.6,3,8.9
			c2,2.3,4.6,3.4,7.8,3.4c3.2,0,5.8-1.2,7.8-3.5C689.2,384.1,690.2,381.1,690.2,377.3z"/>
		<path class="st0" d="M733.1,379.1h-26.5c0.3,3,1.4,5.5,3.5,7.5s4.5,3,7.3,3c4.6,0,7.9-1.7,10.1-5l4.1,2.7
			c-3.5,4.8-8.2,7.3-14.1,7.3c-4.4,0-8.1-1.6-11.2-4.9c-3-3.3-4.6-7.2-4.6-11.9c0-4.6,1.5-8.5,4.6-11.8c3.1-3.3,6.8-4.9,11.1-4.9
			c4.4,0,8.1,1.6,11.2,4.9c3.1,3.3,4.6,7.2,4.6,11.8V379.1z M728.2,374.7c-0.7-2.5-2-4.6-4.1-6.3c-2.1-1.8-4.4-2.6-6.8-2.6
			c-2.4,0-4.7,0.9-6.7,2.6c-2,1.7-3.4,3.8-4,6.3H728.2z"/>
		<path class="st0" d="M765.5,362l-15.5,32.6L734.5,362h5.7l9.8,22.1l9.9-22.1H765.5z"/>
		<path class="st0" d="M798.5,379.1h-26.5c0.3,3,1.4,5.5,3.5,7.5s4.5,3,7.3,3c4.6,0,7.9-1.7,10.1-5l4.1,2.7
			c-3.5,4.8-8.2,7.3-14.1,7.3c-4.4,0-8.1-1.6-11.2-4.9c-3-3.3-4.6-7.2-4.6-11.9c0-4.6,1.5-8.5,4.6-11.8c3.1-3.3,6.8-4.9,11.1-4.9
			c4.4,0,8.1,1.6,11.2,4.9c3.1,3.3,4.6,7.2,4.6,11.8V379.1z M793.6,374.7c-0.7-2.5-2-4.6-4.1-6.3c-2.1-1.8-4.4-2.6-6.8-2.6
			c-2.4,0-4.7,0.9-6.7,2.6c-2,1.7-3.4,3.8-4,6.3H793.6z"/>
		<path class="st0" d="M810.1,393.5h-5.3v-55.2h5.3V393.5z"/>
		<path class="st0" d="M850.4,377.7c0,4.7-1.7,8.7-5,11.9c-3.3,3.2-7.3,4.8-12,4.8c-4.8,0-8.8-1.6-12-4.8c-3.3-3.2-4.9-7.2-4.9-12
			c0-4.6,1.6-8.5,4.9-11.8c3.3-3.3,7.3-4.9,12-4.9c4.7,0,8.7,1.6,12,4.9C848.7,369.2,850.4,373.1,850.4,377.7z M845,377.8
			c0-3.3-1.1-6-3.4-8.3c-2.3-2.3-5-3.4-8.2-3.4c-3.2,0-6,1.1-8.2,3.4c-2.2,2.3-3.3,5.1-3.3,8.3c0,3.3,1.1,6.1,3.3,8.4s5,3.4,8.2,3.4
			c3.2,0,6-1.1,8.2-3.4C843.9,383.9,845,381.1,845,377.8z"/>
		<path class="st0" d="M888.6,377.7c0,4.9-1.4,8.9-4.3,12.1c-2.9,3.2-6.5,4.7-10.9,4.7c-5,0-9-2.1-11.9-6.3c0,0.5,0.1,1.3,0.2,2.6
			c0.1,1.3,0.2,2.2,0.2,2.8v18.8h-5.3V362h4.9v5.5c3.1-4.3,7-6.4,11.8-6.4c4.4,0,8,1.6,11,4.8C887.1,369,888.6,373,888.6,377.7z
			 M883.2,377.8c0-3.5-1-6.4-3.1-8.6c-2-2.3-4.6-3.4-7.8-3.4c-3,0-5.6,1.2-7.7,3.5c-2.1,2.3-3.2,5.2-3.2,8.6c0,3.5,1,6.4,3,8.7
			c2,2.3,4.7,3.4,7.9,3.4c3.1,0,5.7-1.1,7.7-3.4C882.2,384.2,883.2,381.3,883.2,377.8z"/>
		<path class="st0" d="M937.1,393.5h-5.3v-19.1c0-5.8-2-8.7-5.9-8.7c-4.8,0-7.3,3.5-7.3,10.5v17.3h-5.2v-19.1c0-5.8-1.9-8.7-5.7-8.7
			c-2.3,0-4.1,1-5.5,3c-1.3,2-2,4.8-2,8.5v16.3H895V362h5v4.8c2.4-3.8,5.3-5.7,8.8-5.7c2,0,3.8,0.6,5.4,1.7c1.5,1,2.5,2.3,3.1,3.9
			c0.8-1.5,2-2.8,3.5-3.9c1.8-1.2,3.7-1.8,5.8-1.8c6.9,0,10.4,4.3,10.4,12.9V393.5z"/>
		<path class="st0" d="M974.8,379.1h-26.5c0.3,3,1.4,5.5,3.5,7.5s4.5,3,7.3,3c4.6,0,7.9-1.7,10.1-5l4.1,2.7
			c-3.5,4.8-8.2,7.3-14.1,7.3c-4.4,0-8.1-1.6-11.2-4.9c-3-3.3-4.6-7.2-4.6-11.9c0-4.6,1.5-8.5,4.6-11.8c3.1-3.3,6.8-4.9,11.1-4.9
			c4.4,0,8.1,1.6,11.2,4.9c3.1,3.3,4.6,7.2,4.6,11.8V379.1z M970,374.7c-0.7-2.5-2-4.6-4.1-6.3c-2.1-1.8-4.4-2.6-6.8-2.6
			c-2.4,0-4.7,0.9-6.7,2.6c-2,1.7-3.4,3.8-4,6.3H970z"/>
		<path class="st0" d="M1007.2,393.5h-5.3v-19c0-3.1-0.5-5.3-1.6-6.7s-2.9-2.1-5.4-2.1c-2.6,0-4.7,1.1-6.2,3.4
			c-1.5,2.1-2.2,4.9-2.2,8.4v16h-5.3V362h5v4.5c2.5-3.6,5.8-5.4,9.9-5.4c7.4,0,11.1,4.3,11.1,12.9V393.5z"/>
		<path class="st0" d="M1025.3,366.9h-4.9v26.6h-5.3v-26.6h-3.6V362h3.6v-13.5h5.3V362h4.9V366.9z"/>
	</g>
	<g>
		<path class="st0" d="M156.9,356.8C70.4,356.8,0,286.5,0,200C0,113.4,70.4,43.1,156.9,43.1S313.8,113.4,313.8,200
			C313.8,286.5,243.4,356.8,156.9,356.8z M156.9,52.1C75.3,52.1,9,118.4,9,200c0,81.5,66.3,147.9,147.9,147.9S304.8,281.5,304.8,200
			C304.8,118.4,238.4,52.1,156.9,52.1z"/>
	</g>
	<circle class="st0" cx="81.9" cy="73.5" r="39.4"/>
	<circle class="st0" cx="309.3" cy="201.1" r="20.5"/>
</g>
</svg>
